<svg xmlns="http://www.w3.org/2000/svg" xmlns:xlink="http://www.w3.org/1999/xlink" version="1.1" x="0px" y="0px" viewBox="0 0 100 125" enable-background="new 0 0 100 100" xml:space="preserve" fill="#FFFFFF"><g><g><path d="M28.18,89h14.01c2.15,0,3.9-1.71,3.99-3.84H24.2C24.29,87.29,26.03,89,28.18,89z"/><path d="M37.92,23.36c-3.59,3-7.44,4.93-9.78,4.93c-0.13,0-0.24-0.02-0.36-0.03v14.36c0.12-0.01,0.24-0.02,0.36-0.02h14.09    c0.12,0,0.24,0.01,0.36,0.02V18.5C41.45,20.07,39.84,21.76,37.92,23.36z"/><path d="M28.14,26.3c1.51,0,4.82-1.4,8.5-4.48c3.7-3.07,5.74-6.15,5.86-7.6c0.01-0.2-0.02-0.35-0.07-0.42    c-0.06-0.07-0.26-0.14-0.61-0.14c-1.51,0-4.82,1.4-8.51,4.47c-3.69,3.08-5.74,6.16-5.85,7.61c-0.02,0.19,0.01,0.35,0.06,0.41    C27.59,26.22,27.78,26.3,28.14,26.3z"/><path d="M42.2,53.98c0.55,0,1.08,0.079,1.59,0.22v-8.85c0-0.27-0.59-0.75-1.56-0.75H28.14c-0.97,0-1.56,0.48-1.56,0.75v8.85    c0.51-0.141,1.05-0.22,1.6-0.22H42.2z"/><path d="M47.79,54.268V45.35c0-1.103-0.428-2.142-1.2-2.969V12.83c0-1.492-1.119-2.773-2.603-2.981l-1.449-0.166L40.31,9.428    v0.397c-2.718,0.551-6.227,2.45-9.561,5.228c-4.341,3.624-7.06,7.503-7.274,10.378c-0.065,0.752,0.037,1.473,0.304,2.137v14.817    c-0.772,0.83-1.2,1.868-1.2,2.964v8.918c-1.523,1.488-2.4,3.534-2.4,5.712V85c0,4.411,3.589,8,8,8H42.2c4.411,0,8-3.589,8-8V59.98    C50.2,57.805,49.32,55.758,47.79,54.268z M48.2,85c0,3.31-2.7,6-6,6H28.18c-3.31,0-6-2.69-6-6V59.98c0-2.091,1.07-3.931,2.69-5    h-0.29v-9.63c0-0.83,0.47-1.56,1.2-2.06V27.12c-0.2-0.35-0.37-0.85-0.31-1.54c0.17-2.28,2.75-5.81,6.56-8.99    c3.6-3,7.44-4.93,9.79-4.93c0.18,0,0.33,0.02,0.49,0.05v-0.04l1.4,0.16c0.5,0.07,0.88,0.49,0.88,1v30.46    c0.74,0.5,1.2,1.23,1.2,2.06v9.63H45.5c1.62,1.069,2.7,2.909,2.7,5V85z"/><path d="M42.2,55.98H28.18c-2.2,0-4,1.789-4,4V83.17h22.01L46.2,59.98C46.2,57.77,44.4,55.98,42.2,55.98z"/></g><g><rect x="66.53" y="72.91" width="2.52" height="1.71"/><rect x="66.53" y="69.2" width="2.52" height="1.71"/><path d="M66.53,82.03h1.21c0.02,0,0.029-0.011,0.05-0.011c0.01,0,0.03,0.011,0.04,0.011s0.02,0,0.02,0h1.2v-1.71h-2.52V82.03z"/><rect x="66.53" y="76.62" width="2.52" height="1.7"/><rect x="66.53" y="65.5" width="2.52" height="1.7"/><rect x="59.76" y="11" width="16.061" height="20.58"/><path d="M76.82,7H58.76c-1.654,0-3,1.346-3,3v27.1c0,1.654,1.346,3,3,3h3.771v21.4h-1.67c-1.654,0-3,1.346-3,3    c0,0.697,0.239,1.34,0.64,1.85c-0.4,0.511-0.64,1.153-0.64,1.851c0,0.699,0.241,1.344,0.644,1.854    c-0.402,0.512-0.644,1.156-0.644,1.855s0.241,1.344,0.644,1.854c-0.402,0.512-0.644,1.156-0.644,1.855    c0,0.697,0.239,1.34,0.64,1.851c-0.4,0.51-0.64,1.152-0.64,1.85c0,0.699,0.241,1.344,0.644,1.855    c-0.402,0.511-0.644,1.155-0.644,1.854c0,1.56,1.196,2.845,2.72,2.987c-0.443,0.526-0.69,1.2-0.69,1.914    c0.001,0.813,0.322,1.573,0.906,2.142c0.545,0.547,1.298,0.859,2.1,0.859c0.704,0,1.372-0.242,1.908-0.687    c0.145,1.521,1.429,2.714,2.986,2.714s2.843-1.193,2.986-2.715c0.53,0.437,1.214,0.685,1.914,0.685c0.789,0,1.561-0.32,2.117-0.88    c0.562-0.561,0.874-1.314,0.875-2.118c0-0.708-0.241-1.378-0.687-1.915c1.521-0.145,2.714-1.429,2.714-2.986    c0-0.699-0.241-1.344-0.644-1.854c0.402-0.512,0.644-1.156,0.644-1.855c0-0.697-0.239-1.34-0.64-1.85    c0.4-0.511,0.64-1.153,0.64-1.851c0-0.699-0.241-1.344-0.644-1.855c0.402-0.511,0.644-1.155,0.644-1.854s-0.241-1.344-0.644-1.855    c0.402-0.511,0.644-1.155,0.644-1.854c0-0.697-0.239-1.34-0.64-1.851c0.4-0.51,0.64-1.152,0.64-1.85c0-1.654-1.346-3-3-3h-1.66    V40.1h3.771c1.654,0,3-1.346,3-3V10C79.82,8.346,78.475,7,76.82,7z M77.82,37.1c0,0.55-0.45,1-1,1H71.05v25.4h3.66    c0.56,0,1,0.44,1,1c0,0.55-0.44,1-1,1h-3.66v1.7h3.66c0.56,0,1,0.45,1,1c0,0.56-0.44,1-1,1h-3.66v1.71h3.66c0.56,0,1,0.45,1,1    s-0.44,1-1,1h-3.66v1.71h3.66c0.56,0,1,0.439,1,1c0,0.55-0.44,1-1,1h-3.66v1.7h3.66c0.56,0,1,0.449,1,1c0,0.56-0.44,1-1,1h-3.66    v1.71h3.66c0.56,0,1,0.45,1,1s-0.44,1-1,1h-4.18c-0.04,0.069-0.09,0.13-0.141,0.189l3,3c0.391,0.391,0.391,1.03,0,1.42    c-0.189,0.19-0.449,0.29-0.699,0.29c-0.261,0-0.521-0.1-0.71-0.29l-3.19-3.189v4.51c0,0.55-0.45,1-1,1s-1-0.45-1-1v-4.51    L63.6,88.64c-0.39,0.391-1.02,0.391-1.409,0c-0.4-0.39-0.4-1.029,0-1.42l3-3c-0.051-0.06-0.101-0.12-0.141-0.189H60.86    c-0.551,0-1-0.45-1-1s0.449-1,1-1h3.67v-1.71h-3.67c-0.551,0-1-0.44-1-1c0-0.551,0.449-1,1-1h3.67v-1.7h-3.67c-0.551,0-1-0.45-1-1    c0-0.561,0.449-1,1-1h3.67v-1.71h-3.67c-0.551,0-1-0.45-1-1s0.449-1,1-1h3.67V69.2h-3.67c-0.551,0-1-0.44-1-1c0-0.55,0.449-1,1-1    h3.67v-1.7h-3.67c-0.551,0-1-0.45-1-1c0-0.56,0.449-1,1-1h3.67V38.1H58.76c-0.56,0-1-0.45-1-1V10c0-0.55,0.44-1,1-1H76.82    c0.55,0,1,0.45,1,1V37.1z"/><rect x="66.53" y="38.1" width="2.52" height="25.4"/><rect x="59.76" y="33.58" width="16.061" height="2.52"/></g></g><text x="0" y="115" fill="transparent" font-size="5px" font-weight="bold" font-family="'Helvetica Neue', Helvetica, Arial-Unicode, Arial, Sans-serif">Created by Dama Adhikara</text><text x="0" y="120" font-size="5px" font-weight="bold" fill="transparent" font-family="'Helvetica Neue', Helvetica, Arial-Unicode, Arial, Sans-serif">from the Noun Project</text></svg>